<svg width="16" height="16" viewBox="0 0 16 16" fill="none" xmlns="http://www.w3.org/2000/svg">
<g id="ic_s_s_xmark_outlined_16">
<path id="icon" d="M13.0138 11.5997C13.4043 11.9902 13.4043 12.6234 13.0138 13.0139C12.6233 13.4044 11.9901 13.4044 11.5996 13.0139L7.99991 9.41421L4.40022 13.0139C4.0097 13.4044 3.37653 13.4044 2.98601 13.0139C2.59548 12.6234 2.59548 11.9902 2.98601 11.5997L6.5857 8L2.98601 4.40031C2.59548 4.00979 2.59548 3.37662 2.98601 2.9861C3.37653 2.59558 4.0097 2.59558 4.40022 2.9861L7.99991 6.58579L11.5996 2.9861C11.9901 2.59558 12.6233 2.59558 13.0138 2.9861C13.4043 3.37662 13.4043 4.00979 13.0138 4.40031L9.41412 8L13.0138 11.5997Z" fill="#161823"/>
</g>
</svg>
