<svg width="36" height="36" viewBox="0 0 36 36" fill="none" xmlns="http://www.w3.org/2000/svg">
<g id="tt">
<g id="like">
<g id="Union" filter="url(#filter0_dd_517_2218)">
<path fill-rule="evenodd" clip-rule="evenodd" d="M11.1429 3.5C15.7143 3.5 18 6.56493 18 6.56493C18 6.56493 20.2857 3.5 24.8571 3.5C30.1905 3.5 34 7.71427 34 13.0779C34 19.2078 29.0188 24.6721 24.4762 28.7857C21.6717 31.3253 19.5238 33 18 33C16.4762 33 14.2674 31.3126 11.5238 28.7857C7.05827 24.6729 2 19.2078 2 13.0779C2 7.71427 5.80952 3.5 11.1429 3.5Z" fill="white" fill-opacity="0.92"/>
</g>
<path id="Subtract" fill-rule="evenodd" clip-rule="evenodd" d="M2.78564 17.339C4.3778 21.7365 8.12264 25.6533 11.5237 28.7856C14.2673 31.3125 16.4761 32.9999 17.9999 32.9999C19.5237 32.9999 21.6715 31.3253 24.4761 28.7856C29.0187 24.672 33.9999 19.2077 33.9999 13.0778C33.9999 12.6462 33.9752 12.222 33.927 11.8068C31.3208 20.1616 20.5832 27.75 17.6249 27.75C15.3433 27.75 7.57799 23.2366 2.78564 17.339Z" fill="black" fill-opacity="0.03"/>
</g>
</g>
<defs>
<filter id="filter0_dd_517_2218" x="0.2" y="2.6" width="35.6" height="33.1" filterUnits="userSpaceOnUse" color-interpolation-filters="sRGB">
<feFlood flood-opacity="0" result="BackgroundImageFix"/>
<feColorMatrix in="SourceAlpha" type="matrix" values="0 0 0 0 0 0 0 0 0 0 0 0 0 0 0 0 0 0 127 0" result="hardAlpha"/>
<feOffset dy="0.9"/>
<feGaussianBlur stdDeviation="0.9"/>
<feColorMatrix type="matrix" values="0 0 0 0 0 0 0 0 0 0 0 0 0 0 0 0 0 0 0.15 0"/>
<feBlend mode="normal" in2="BackgroundImageFix" result="effect1_dropShadow_517_2218"/>
<feColorMatrix in="SourceAlpha" type="matrix" values="0 0 0 0 0 0 0 0 0 0 0 0 0 0 0 0 0 0 127 0" result="hardAlpha"/>
<feOffset/>
<feGaussianBlur stdDeviation="0.25"/>
<feColorMatrix type="matrix" values="0 0 0 0 0 0 0 0 0 0 0 0 0 0 0 0 0 0 0.1 0"/>
<feBlend mode="normal" in2="effect1_dropShadow_517_2218" result="effect2_dropShadow_517_2218"/>
<feBlend mode="normal" in="SourceGraphic" in2="effect2_dropShadow_517_2218" result="shape"/>
</filter>
</defs>
</svg>
