<svg width="28" height="28" viewBox="0 0 28 28" fill="none" xmlns="http://www.w3.org/2000/svg">
<circle cx="14" cy="14" r="14" fill="url(#paint0_linear_3449_32285)"/>
<g filter="url(#filter0_d_3449_32285)">
<path fill-rule="evenodd" clip-rule="evenodd" d="M9 5C8.44772 5 8 5.44772 8 6V22C8 22.5523 8.44771 23 9 23H19C19.5523 23 20 22.5523 20 22V6C20 5.44772 19.5523 5 19 5H9ZM12.8304 11.0824L15.713 12.9359C16.0957 13.182 16.0957 13.818 15.713 14.0641L12.8304 15.9176C12.458 16.1571 12 15.8459 12 15.3535V11.6465C12 11.1541 12.458 10.8429 12.8304 11.0824Z" fill="white"/>
</g>
<defs>
<filter id="filter0_d_3449_32285" x="5" y="2" width="18" height="24" filterUnits="userSpaceOnUse" color-interpolation-filters="sRGB">
<feFlood flood-opacity="0" result="BackgroundImageFix"/>
<feColorMatrix in="SourceAlpha" type="matrix" values="0 0 0 0 0 0 0 0 0 0 0 0 0 0 0 0 0 0 127 0" result="hardAlpha"/>
<feOffset/>
<feGaussianBlur stdDeviation="1.5"/>
<feComposite in2="hardAlpha" operator="out"/>
<feColorMatrix type="matrix" values="0 0 0 0 0.363219 0 0 0 0 0.335229 0 0 0 0 1 0 0 0 0.5 0"/>
<feBlend mode="normal" in2="BackgroundImageFix" result="effect1_dropShadow_3449_32285"/>
<feBlend mode="normal" in="SourceGraphic" in2="effect1_dropShadow_3449_32285" result="shape"/>
</filter>
<linearGradient id="paint0_linear_3449_32285" x1="0" y1="0" x2="18.7303" y2="29.3406" gradientUnits="userSpaceOnUse">
<stop stop-color="#BEB3FF"/>
<stop offset="1" stop-color="#8489FF"/>
</linearGradient>
</defs>
</svg>
