<svg width="186" height="180" viewBox="0 0 186 180" fill="none" xmlns="http://www.w3.org/2000/svg">
<g filter="url(#filter0_d_3437_32282)">
<path fill-rule="evenodd" clip-rule="evenodd" d="M119.511 113.052C117.243 114.951 117.337 118.451 119.75 120.162C126.952 125.269 140.557 134.329 146.471 134.352C151.152 134.37 155.518 135.78 158.414 136.993C160.606 137.912 163.195 137.736 165.049 136.249L175.53 127.843C177.11 126.575 177.313 124.244 175.976 122.722L172.739 119.039C172.739 119.039 170.704 108.761 169.237 106.995C168.452 106.051 165.968 102.609 163.826 99.6103C161.697 96.6294 158.068 95.0985 154.45 95.6778V95.6778C154.432 95.6807 154.414 95.6783 154.397 95.6708V95.6708C151.782 94.4979 148.774 94.5847 146.231 95.9064L145.169 96.4585C145.145 96.4705 145.118 96.4724 145.094 96.4637V96.4637C141.914 95.3377 138.374 96.0045 135.821 98.2105L135.292 98.6677L121.34 84.6529C119.421 82.7253 116.368 82.5251 114.214 84.1856V84.1856C111.767 86.0711 111.397 89.62 113.401 91.9699L133.732 115.808C133.765 115.847 133.725 115.905 133.677 115.887L124.092 112.273C122.536 111.687 120.785 111.984 119.511 113.052V113.052Z" fill="url(#paint0_linear_3437_32282)"/>
</g>
<g filter="url(#filter1_d_3437_32282)">
<path d="M82 38C82 35.7909 83.7909 34 86 34V34C88.2091 34 90 35.7909 90 38V85H82V38Z" fill="url(#paint1_linear_3437_32282)"/>
</g>
<g filter="url(#filter2_d_3437_32282)">
<path d="M82 142C82 144.209 83.7909 146 86 146V146C88.2091 146 90 144.209 90 142V95H82V142Z" fill="url(#paint2_linear_3437_32282)"/>
</g>
<defs>
<filter id="filter0_d_3437_32282" x="105.109" y="76.062" width="80.7515" height="70.4945" filterUnits="userSpaceOnUse" color-interpolation-filters="sRGB">
<feFlood flood-opacity="0" result="BackgroundImageFix"/>
<feColorMatrix in="SourceAlpha" type="matrix" values="0 0 0 0 0 0 0 0 0 0 0 0 0 0 0 0 0 0 127 0" result="hardAlpha"/>
<feOffset dx="1" dy="1"/>
<feGaussianBlur stdDeviation="4"/>
<feColorMatrix type="matrix" values="0 0 0 0 0 0 0 0 0 0 0 0 0 0 0 0 0 0 0.26 0"/>
<feBlend mode="normal" in2="BackgroundImageFix" result="effect1_dropShadow_3437_32282"/>
<feBlend mode="normal" in="SourceGraphic" in2="effect1_dropShadow_3437_32282" result="shape"/>
</filter>
<filter id="filter1_d_3437_32282" x="75" y="27" width="24" height="67" filterUnits="userSpaceOnUse" color-interpolation-filters="sRGB">
<feFlood flood-opacity="0" result="BackgroundImageFix"/>
<feColorMatrix in="SourceAlpha" type="matrix" values="0 0 0 0 0 0 0 0 0 0 0 0 0 0 0 0 0 0 127 0" result="hardAlpha"/>
<feOffset dx="1" dy="1"/>
<feGaussianBlur stdDeviation="4"/>
<feColorMatrix type="matrix" values="0 0 0 0 0 0 0 0 0 0 0 0 0 0 0 0 0 0 0.26 0"/>
<feBlend mode="normal" in2="BackgroundImageFix" result="effect1_dropShadow_3437_32282"/>
<feBlend mode="normal" in="SourceGraphic" in2="effect1_dropShadow_3437_32282" result="shape"/>
</filter>
<filter id="filter2_d_3437_32282" x="75" y="88" width="24" height="67" filterUnits="userSpaceOnUse" color-interpolation-filters="sRGB">
<feFlood flood-opacity="0" result="BackgroundImageFix"/>
<feColorMatrix in="SourceAlpha" type="matrix" values="0 0 0 0 0 0 0 0 0 0 0 0 0 0 0 0 0 0 127 0" result="hardAlpha"/>
<feOffset dx="1" dy="1"/>
<feGaussianBlur stdDeviation="4"/>
<feColorMatrix type="matrix" values="0 0 0 0 0 0 0 0 0 0 0 0 0 0 0 0 0 0 0.26 0"/>
<feBlend mode="normal" in2="BackgroundImageFix" result="effect1_dropShadow_3437_32282"/>
<feBlend mode="normal" in="SourceGraphic" in2="effect1_dropShadow_3437_32282" result="shape"/>
</filter>
<linearGradient id="paint0_linear_3437_32282" x1="134.088" y1="89.8358" x2="171.902" y2="132.645" gradientUnits="userSpaceOnUse">
<stop stop-color="white" stop-opacity="0.937132"/>
<stop offset="0.345566" stop-color="#FBFBFB" stop-opacity="0.679137"/>
<stop offset="0.981532" stop-color="#F2F2F2" stop-opacity="0"/>
</linearGradient>
<linearGradient id="paint1_linear_3437_32282" x1="84.7924" y1="41.2914" x2="79.4456" y2="81.8096" gradientUnits="userSpaceOnUse">
<stop stop-color="white" stop-opacity="0.937132"/>
<stop offset="1" stop-color="#F2F2F2" stop-opacity="0"/>
</linearGradient>
<linearGradient id="paint2_linear_3437_32282" x1="84.7924" y1="138.709" x2="79.4456" y2="98.1904" gradientUnits="userSpaceOnUse">
<stop stop-color="white" stop-opacity="0.937132"/>
<stop offset="1" stop-color="#F2F2F2" stop-opacity="0"/>
</linearGradient>
</defs>
</svg>
