<svg width="20" height="20" viewBox="0 0 20 20" fill="none" xmlns="http://www.w3.org/2000/svg">
<path d="M2.68635 2.67479C3.05247 2.30868 3.64606 2.30868 4.01217 2.67479L7.08107 5.74369L10.0719 3.53173C10.7319 3.04356 11.6665 3.51477 11.6665 4.33573V10.3291L13.1164 11.7791L13.1572 11.7383C13.3855 11.51 13.5666 11.239 13.6901 10.9407C13.8137 10.6425 13.8772 10.3228 13.8772 9.99996C13.8772 9.67713 13.8137 9.35746 13.6901 9.0592C13.5666 8.76094 13.3855 8.48994 13.1572 8.26166C12.8155 7.91995 12.8155 7.36593 13.1572 7.02422C13.4989 6.68251 14.0529 6.68251 14.3947 7.02422C14.7854 7.415 15.0954 7.87893 15.3069 8.3895C15.5184 8.90008 15.6272 9.44732 15.6272 9.99996C15.6272 10.5526 15.5184 11.0998 15.3069 11.6104C15.0954 12.121 14.7854 12.5849 14.3947 12.9757L14.3539 13.0165L15.2513 13.9139L15.3646 13.8007C15.8637 13.3016 16.2596 12.709 16.5297 12.0569C16.7999 11.4048 16.9389 10.7058 16.9389 9.99998C16.9389 9.29413 16.7999 8.59518 16.5297 7.94306C16.2596 7.29093 15.8637 6.6984 15.3646 6.19928C15.0229 5.85757 15.0229 5.30355 15.3646 4.96184C15.7063 4.62014 16.2603 4.62014 16.602 4.96184C17.2636 5.62346 17.7885 6.40892 18.1465 7.27336C18.5046 8.13781 18.6889 9.06431 18.6889 9.99998C18.6889 10.9356 18.5046 11.8622 18.1465 12.7266C17.7885 13.591 17.2636 14.3765 16.602 15.0381L16.4888 15.1514L17.3455 16.0081C17.7116 16.3742 17.7116 16.9678 17.3455 17.334C16.982 17.6975 16.3943 17.7001 16.0276 17.3417L3.07437 4.38855C3.07173 4.38591 3.06907 4.38328 3.06641 4.38068L2.68635 4.00062C2.32023 3.6345 2.32023 3.04091 2.68635 2.67479Z" fill="#FBFCFC"/>
<path d="M2.71668 6.68251C2.12131 6.77816 1.6665 7.29428 1.6665 7.91662V12.0833C1.6665 12.7736 2.22615 13.3333 2.9165 13.3333H5.28448C5.64086 13.3333 5.98787 13.4475 6.27456 13.6592L10.0725 16.4639C10.7326 16.9514 11.6665 16.4801 11.6665 15.6594V15.6323L2.71668 6.68251Z" fill="#FBFCFC"/>
</svg>
