<svg width="10" height="10" viewBox="0 0 10 10" fill="none" xmlns="http://www.w3.org/2000/svg">
<g id="ic_s_s_soundwave_outlined_20">
<g id="icon">
<path d="M1.36364 3.6819C1.36364 3.3053 1.05838 3.00001 0.68182 3.00001C0.305261 3.00001 0 3.3053 0 3.6819V9.31716C0 9.69375 0.305261 9.99904 0.68182 9.99904C1.05838 9.99904 1.36364 9.69375 1.36364 9.31716V3.6819Z" fill="#1664FF"/>
<path d="M5.77272 2.8316C6.14928 2.8316 6.45454 3.13689 6.45454 3.51349V9.31716C6.45454 9.69375 6.14928 9.99904 5.77272 9.99904C5.39616 9.99904 5.0909 9.69375 5.0909 9.31716L5.0909 3.51349C5.0909 3.13689 5.39616 2.8316 5.77272 2.8316Z" fill="#1664FF"/>
<path d="M8.31818 5.88588C8.69474 5.88588 9 6.19117 9 6.56776V9.31716C9 9.69375 8.69474 10 8.31818 10C7.94162 10 7.63636 9.69375 7.63636 9.31716V6.56776C7.63636 6.19117 7.94162 5.88588 8.31818 5.88588Z" fill="#1664FF"/>
<path d="M3.9091 5.71541C3.9091 5.33881 3.60384 5.03352 3.22728 5.03352C2.85072 5.03352 2.54546 5.33881 2.54546 5.71541V9.31716C2.54546 9.69375 2.85072 9.99904 3.22728 9.99904C3.60384 9.99904 3.9091 9.69375 3.9091 9.31716V5.71541Z" fill="#1664FF"/>
</g>
</g>
</svg>
