<svg width="28" height="28" viewBox="0 0 28 28" fill="none" xmlns="http://www.w3.org/2000/svg">
<circle cx="14" cy="14" r="14" fill="url(#paint0_linear_90_4914)"/>
<g filter="url(#filter0_d_90_4914)">
<path fill-rule="evenodd" clip-rule="evenodd" d="M15.0304 9.41509L20.0886 9.06139C20.6395 9.02286 21.1174 9.43826 21.1559 9.9892C21.1921 10.5066 20.8278 10.9596 20.327 11.0447L20.6228 11.024L21.2087 19.4036C21.2318 19.7341 20.9826 20.0208 20.652 20.044L8.22645 20.9128C7.89589 20.9359 7.60917 20.6867 7.58606 20.3561L7.0001 11.9766L7.16016 11.9654C6.65233 11.9509 6.2286 11.553 6.19242 11.0355C6.18216 10.8889 6.20408 10.7474 6.25215 10.618C6.17555 10.1204 6.48443 9.63443 6.98196 9.50111L19.539 6.13646C20.0725 5.99352 20.6208 6.31011 20.7637 6.84357C20.9067 7.37704 20.5901 7.92537 20.0566 8.06832L15.0304 9.41509ZM12.8341 13.0243L15.839 14.6722C16.2379 14.891 16.2823 15.5254 15.9177 15.7976L13.1714 17.8477C12.8166 18.1125 12.338 17.8341 12.3037 17.3429L12.0451 13.6449C12.0107 13.1537 12.4459 12.8114 12.8341 13.0243Z" fill="white"/>
</g>
<defs>
<filter id="filter0_d_90_4914" x="3" y="3" width="22" height="22" filterUnits="userSpaceOnUse" color-interpolation-filters="sRGB">
<feFlood flood-opacity="0" result="BackgroundImageFix"/>
<feColorMatrix in="SourceAlpha" type="matrix" values="0 0 0 0 0 0 0 0 0 0 0 0 0 0 0 0 0 0 127 0" result="hardAlpha"/>
<feOffset/>
<feGaussianBlur stdDeviation="1.5"/>
<feColorMatrix type="matrix" values="0 0 0 0 0.902262 0 0 0 0 0.597749 0 0 0 0 0 0 0 0 1 0"/>
<feBlend mode="normal" in2="BackgroundImageFix" result="effect1_dropShadow_90_4914"/>
<feBlend mode="normal" in="SourceGraphic" in2="effect1_dropShadow_90_4914" result="shape"/>
</filter>
<linearGradient id="paint0_linear_90_4914" x1="0" y1="0" x2="18.7303" y2="29.3406" gradientUnits="userSpaceOnUse">
<stop stop-color="#FFCD6C"/>
<stop offset="1" stop-color="#FFAE10"/>
</linearGradient>
</defs>
</svg>
