<svg width="20" height="28" viewBox="0 0 20 28" fill="none" xmlns="http://www.w3.org/2000/svg">
<g clip-path="url(#clip0_2896_28774)">
<path fill-rule="evenodd" clip-rule="evenodd" d="M3.33329 19C3.10317 19 2.91663 19.1866 2.91663 19.4167V21.0834C2.91663 21.3135 3.10317 21.5 3.33329 21.5H4.99996C5.23008 21.5 5.41663 21.3135 5.41663 21.0834V19.4167C5.41663 19.1866 5.23008 19 4.99996 19H3.33329ZM9.58329 19.4266C9.35317 19.4266 9.16663 19.6131 9.16663 19.8432V20.6766C9.16663 20.9067 9.35317 21.0932 9.58329 21.0932H17.9166C18.1467 21.0932 18.3333 20.9067 18.3333 20.6766V19.8432C18.3333 19.6131 18.1467 19.4266 17.9166 19.4266H9.58329ZM3.33329 13.1667C3.10317 13.1667 2.91663 13.3533 2.91663 13.5834V15.25C2.91663 15.4802 3.10317 15.6667 3.33329 15.6667H4.99996C5.23008 15.6667 5.41663 15.4802 5.41663 15.25V13.5834C5.41663 13.3533 5.23008 13.1667 4.99996 13.1667H3.33329ZM9.58329 13.5932C9.35317 13.5932 9.16663 13.7798 9.16663 14.0099V14.8432C9.16663 15.0734 9.35317 15.2599 9.58329 15.2599H17.9166C18.1467 15.2599 18.3333 15.0734 18.3333 14.8432V14.0099C18.3333 13.7798 18.1467 13.5932 17.9166 13.5932H9.58329ZM3.33329 7.33337C3.10317 7.33337 2.91663 7.51992 2.91663 7.75004V9.41671C2.91663 9.64683 3.10317 9.83337 3.33329 9.83337H4.99996C5.23008 9.83337 5.41663 9.64683 5.41663 9.41671V7.75004C5.41663 7.51992 5.23008 7.33337 4.99996 7.33337H3.33329ZM9.58329 7.75991C9.35317 7.75991 9.16663 7.94646 9.16663 8.17657V9.00991C9.16663 9.24003 9.35317 9.42657 9.58329 9.42657H17.9166C18.1467 9.42657 18.3333 9.24003 18.3333 9.00991V8.17657C18.3333 7.94646 18.1467 7.75991 17.9166 7.75991H9.58329Z" fill="#C4C4C4"/>
</g>
<defs>
<clipPath id="clip0_2896_28774">
<rect width="20" height="20" fill="white" transform="translate(0 4)"/>
</clipPath>
</defs>
</svg>
