<?xml version="1.0" standalone="no"?>
<!DOCTYPE svg PUBLIC "-//W3C//DTD SVG 20010904//EN"
 "http://www.w3.org/TR/2001/REC-SVG-20010904/DTD/svg10.dtd">
<svg version="1.0" xmlns="http://www.w3.org/2000/svg"
 width="700.000000pt" height="700.000000pt" viewBox="0 0 700.000000 700.000000"
 preserveAspectRatio="xMidYMid meet">
<metadata>
Created by potrace 1.14, written by Peter Selinger 2001-2017
</metadata>
<g transform="translate(0.000000,700.000000) scale(0.100000,-0.100000)"
fill="#000000" stroke="none">
<path d="M1884 6140 c-108 -15 -214 -68 -305 -152 -78 -71 -140 -190 -157
-301 -4 -28 -8 -936 -7 -2017 1 -1862 2 -1968 19 -2025 55 -184 188 -319 376
-381 39 -13 85 -18 155 -18 133 0 184 17 368 126 54 32 100 58 101 58 2 0 65
36 140 80 226 133 1856 1074 1936 1118 25 14 77 44 115 67 39 23 115 68 170
99 55 32 107 62 115 67 8 5 130 75 270 155 380 217 407 234 466 292 219 216
211 579 -19 788 -44 41 -464 293 -732 439 -27 15 -54 31 -60 35 -5 4 -30 19
-55 32 -71 40 -241 139 -282 164 -21 13 -40 24 -42 24 -2 0 -50 27 -106 60
-56 33 -103 60 -105 60 -2 0 -40 23 -85 50 -45 28 -83 50 -86 50 -2 0 -49 27
-105 60 -55 33 -102 60 -104 60 -2 0 -49 27 -104 60 -56 33 -106 60 -111 60
-6 0 -10 5 -10 10 0 6 -4 10 -10 10 -5 0 -55 27 -111 60 -55 33 -102 60 -103
60 -2 0 -75 42 -162 93 -87 51 -166 96 -174 100 -8 4 -31 17 -50 28 -202 121
-745 434 -817 470 -114 58 -210 75 -329 59z m1016 -1980 c63 -36 237 -137 385
-222 149 -86 286 -165 305 -177 19 -11 50 -28 68 -37 39 -20 35 -26 -48 -71
-30 -17 -143 -81 -250 -143 -107 -62 -217 -126 -245 -142 -81 -46 -188 -108
-220 -127 -73 -43 -145 -83 -146 -79 -1 1 -2 247 -3 545 l-2 541 21 -10 c11
-6 72 -41 135 -78z"/>
</g>
</svg>
